<svg xmlns="http://www.w3.org/2000/svg" viewBox="0 0 240 240"><defs><linearGradient id="s" y2="1"><stop stop-color="#80e0f3"/><stop offset="1" stop-color="#f3f7df"/></linearGradient><filter id="d"><feDropShadow dy="8" stdDeviation="5" flood-opacity=".24"/></filter></defs><rect width="240" height="240" fill="url(#s)"/><g filter="url(#d)"><path d="M10 184 120 221l113-37-113-38z" fill="#72b368"/><path d="M28 119h184v65H28z" fill="#f6dcaa"/><path d="m19 122 99-69 103 69-16 11-87-59-84 59z" fill="#d57a42"/><path d="M43 142h18v22H43zm29 0h18v22H72zm29 0h18v22h-18zm30 0h18v22h-18zm29 0h18v22h-18zm29 0h14v22h-14z" fill="#70c7dc"/><path d="M105 145h27v39h-27z" fill="#86593f"/><path d="M96 52h44v70H96z" fill="#f6e4b5"/><path d="m90 54 28-40 29 40-11 8-18-27-18 27z" fill="#d67b43"/><path d="M90 80h56" stroke="#ffda70" stroke-width="5"/><circle cx="118" cy="101" r="9" fill="#ffdb72"/><path d="M37 183h164" stroke="#f6d77d" stroke-width="6" stroke-dasharray="10 6"/><ellipse cx="118" cy="192" rx="25" ry="13" fill="#64d3e1"/><ellipse cx="118" cy="188" rx="14" ry="7" fill="#d8f7fb"/><circle cx="44" cy="185" r="19" fill="#4d9959"/><circle cx="191" cy="185" r="19" fill="#54a15e"/><circle cx="63" cy="199" r="8" fill="#e98475"/><circle cx="174" cy="199" r="8" fill="#dd78b6"/></g></svg>
